# AST/ASF file generated using VICON BodyLanguage
# -----------------------------------------------
:version 1.10
:name VICON
:units
  mass 1.0
  length 0.45
  angle deg
:documentation
   .ast/.asf automatically generated from VICON data using
   VICON BodyBuilder and BodyLanguage model FoxedUp or BRILLIANT.MOD
:root
   order TX TY TZ RX RY RZ
   axis XYZ
   position 0 0 0  
   orientation 0 0 0 
:bonedata
  begin
     id 1 
     name lhipjoint
     direction 0.57768 -0.667037 0.470475 
     length 2.36008 
     axis 0 0 0  XYZ
  end
  begin
     id 2 
     name lfemur
     direction 0.34202 -0.939693 0  
     length 6.97235  
     axis 0 0 20  XYZ
    dof rx ry rz
    limits (-160.0 20.0)
           (-70.0 70.0)
           (-60.0 70.0)
  end
  begin
     id 3 
     name ltibia
     direction 0.34202 -0.939693 0   
     length 6.93428   
     axis 0 0 20   XYZ
    dof rx
    limits (-10.0 170.0)
  end
  begin
     id 4 
     name lfoot
     direction 0.133018 -0.365463 0.921272   
     length 2.18603   
     axis -90 7.62852e-016 20   XYZ
    dof rx rz
    limits (-45.0 90.0)
           (-70.0 20.0)
  end
  begin
     id 5 
     name ltoes
     direction 1.53519e-011 -4.22055e-011 1   
     length 1.07924   
     axis -90 7.62852e-016 20   XYZ
    dof rx
    limits (-90.0 20.0)
  end
  begin
     id 6 
     name rhipjoint
     direction -0.577712 -0.667019 0.470462   
     length 2.36015  
     axis 0 0 0  XYZ 
  end
  begin
     id 7 
     name rfemur
     direction -0.34202 -0.939693 0   
     length 6.71195   
     axis 0 0 -20   XYZ
    dof rx ry rz
    limits (-160.0 20.0)
           (-70.0 70.0)
           (-70.0 60.0)
  end
  begin
     id 8 
     name rtibia
     direction -0.34202 -0.939693 0   
     length 7.04592   
     axis 0 0 -20   XYZ
    dof rx
    limits (-10.0 170.0)
 end
 begin
     id 9 
     name rfoot
     direction -0.113796 -0.312651 0.943027   
     length 2.03846  
     axis -90 -7.62852e-016 -20   XYZ
    dof rx rz
    limits (-45.0 90.0)
           (-20.0 70.0)
  end
  begin
     id 10 
     name rtoes
     direction -1.53586e-011 -4.218e-011 1   
     length 1.01562   
     axis -90 -7.62852e-016 -20   XYZ
    dof rx
    limits (-90.0 20.0)
  end
  begin
     id 11 
     name lowerback
     direction -0.0417299 0.991937 -0.119667   
     length 2.05257   
     axis 0 0 0   XYZ
    dof rx ry rz
    limits (-20.0 45.0)
           (-30.0 30.0)
           (-30.0 30.0)
  end
  begin
     id 12 
     name upperback
     direction -0.00017666 0.999999 0.00105178   
     length 2.05693   
     axis 0 0 0   XYZ
    dof rx ry rz
    limits (-20.0 45.0)
           (-30.0 30.0)
           (-30.0 30.0)
  end
  begin
     id 13 
     name thorax
     direction 0.0185169 0.998203 0.0569866   
     length 2.0932   
     axis 0 0 0   XYZ
    dof rx ry rz
    limits (-20.0 45.0)
           (-30.0 30.0)
           (-30.0 30.0)
  end
  begin
     id 14 
     name lowerneck
     direction -0.0212406 0.982645 0.184277   
     length 1.72509   
     axis 0 0 0   XYZ
    dof rx ry rz
    limits (-20.0 45.0)
           (-30.0 30.0)
           (-30.0 30.0)
  end
  begin
     id 15 
     name upperneck
     direction 0.00528579 0.965323 -0.261004   
     length 1.76294   
     axis 0 0 0   XYZ
    dof rx ry rz
    limits (-20.0 45.0)
           (-30.0 30.0)
           (-30.0 30.0)
  end
  begin
     id 16
     name head
     direction 0.00695421 0.994078 -0.108445  
     length 1.78678  
     axis 0 0 0   XYZ
    dof rx ry rz
    limits (-20.0 45.0)
           (-30.0 30.0)
           (-30.0 30.0)
  end
  begin
     id 17 
     name lclavicle
     direction 0.97277 0.211305 -0.095232  
     length 3.84823  
     axis 0 0 0   XYZ
    dof ry rz
    limits (-20.0 10.0)
           (0.0 20.0)
  end
  begin
     id 18 
     name lhumerus
     direction 1 -4.48957e-011 -1.98313e-027   
     length 4.97185   
     axis 180 -30 -90   XYZ
    dof rx ry rz
    limits (-60.0 90.0)
           (-90.0 90.0)
           (-90.0 90.0)
  end
  begin
     id 19
     name lradius
     direction 1 -4.4898e-011 7.31063e-027   
     length 3.35811   
     axis 180 -30 -90   XYZ
    dof rx
    limits (-10.0 170.0)
  end
  begin
     id 20
     name lwrist
     direction 1 -4.48938e-011 9.95048e-027   
     length 1.67905   
     axis -8.75986e-015 90 90   XYZ
    dof ry
    limits (-180.0 0.0)
 end
  begin
     id 21 
     name lhand
     direction 1 -4.4901e-011 1.9901e-026   
     length 0.622776   
     axis -1.26985e-014 90 90   XYZ
    dof rx rz
    limits (-90.0 90.0)
           (-45.0 45.0)
  end
  begin
     id 22 
     name lfingers
     direction 1 -4.48961e-011 3.98019e-026   
     length 0.502098   
     axis -2.5397e-014 90 90   XYZ
    dof rx
    limits (0.0 90.0)
  end
  begin
     id 23
     name lthumb
     direction 0.707107 -6.34933e-011 0.707107   
     length 0.720915   
     axis -90 45 2.85299e-015   XYZ
    dof rx rz
    limits (-45.0 45.0)
           (-45.0 45.0)
  end
  begin
     id 24 
     name rclavicle
     direction -0.990867 0.133739 -0.0172226   
     length 3.78845  
     axis 0 0 0   XYZ 
    dof ry rz
    limits (-10.0 20.0)
           (-20.0 0.0)
  end
  begin
     id 25 
     name rhumerus
     direction -1 -4.48972e-011 -1.99267e-027  
     length 4.96493   
     axis 180 30 90   XYZ
    dof rx ry rz
    limits (-90.0 60.0)
           (-90.0 90.0)
           (-90.0 90.0)
  end
  begin
     id 26 
     name rradius
     direction -1 -4.48969e-011 8.96093e-027   
     length 3.34929   
     axis 180 30 90   XYZ
    dof rx
    limits (-10.0 170.0)
  end
  begin
     id 27 
     name rwrist
     direction -1 -4.48953e-011 9.95048e-027   
     length 1.67464   
     axis -8.75986e-015 -90 -90   XYZ
    dof ry
    limits (-180.0 0.0)
  end
  begin
     id 28
     name rhand
     direction -1 -4.49001e-011 1.9901e-026   
     length 0.638041   
     axis -1.26985e-014 -90 -90   XYZ
    dof rx rz
    limits (-90.0 90.0)
           (-45.0 45.0)
  end
  begin
     id 29
     name rfingers
     direction -1 -4.48967e-011 3.98019e-026   
     length 0.514405   
     axis -2.5397e-014 -90 -90   XYZ
    dof rx
    limits (0.0 90.0)
  end
  begin
     id 30
     name rthumb
     direction -0.707107 -6.34904e-011 0.707107   
     length 0.738586   
     axis -90 -45 -2.85299e-015   XYZ
    dof rx rz
    limits (-45.0 45.0)
           (-45.0 45.0)
  end
:hierarchy
  begin
    root lhipjoint rhipjoint lowerback
    lhipjoint lfemur
    lfemur ltibia
    ltibia lfoot
    lfoot ltoes
    rhipjoint rfemur
    rfemur rtibia
    rtibia rfoot
    rfoot rtoes
    lowerback upperback
    upperback thorax
    thorax lowerneck lclavicle rclavicle
    lowerneck upperneck
    upperneck head
    lclavicle lhumerus
    lhumerus lradius
    lradius lwrist
    lwrist lhand lthumb
    lhand lfingers
    rclavicle rhumerus
    rhumerus rradius
    rradius rwrist
    rwrist rhand rthumb
    rhand rfingers
  end

#!OML:ASF E:\Mandelcareful walks\Project 1\Capture day 1\Session 1\Subject1.ASF
:FULLY-SPECIFIED
:DEGREES
369
root 4.52203 17.6269 0.519361 -261.019 -80.6659 264.517
lowerback 0.200894 -2.37015 -6.56091
upperback 1.51356 -3.1423 1.19793
thorax 1.87494 -1.68198 4.86132
lowerneck -13.4974 -10.4708 -16.967
upperneck 29.7409 -13.7197 6.78666
head 14.1329 -7.33975 3.10585
rclavicle -3.33958e-014 -1.59028e-014
rhumerus -19.1892 -11.8464 -43.8325
rradius 47.8016
rwrist -10.1807
rhand -2.38279 -21.9826
rfingers 7.12502
rthumb 23.3062 -50.5919
lclavicle -3.33958e-014 -1.59028e-014
lhumerus -14.077 25.263 41.5963
lradius 37.9104
lwrist 40.0623
lhand -35.6102 -12.5038
lfingers 7.12502
lthumb -8.73369 17.2955
rfemur -39.832 -15.3669 12.6848
rtibia 59.817
rfoot 2.7389 -14.7811
rtoes -2.67041
lfemur 5.86552 -6.68559 -15.3823
ltibia 0
lfoot -13.785 20.4382
ltoes 3.53393
370
root 4.50887 17.6145 0.498694 -260.236 -80.7939 263.793
lowerback 0.00888644 -2.35912 -6.63806
upperback 1.51582 -3.11264 1.15876
thorax 1.98352 -1.6714 4.85614
lowerneck -12.5027 -10.2675 -17.3165
upperneck 28.9076 -13.6403 7.44018
head 13.6359 -7.28379 3.48544
rclavicle -1.07344e-014 6.04305e-014
rhumerus -19.3961 -11.5228 -43.6751
rradius 48.0574
rwrist -10.5764
rhand -2.35733 -22.1341
rfingers 7.12502
rthumb 23.3306 -50.7403
lclavicle -1.07344e-014 6.04305e-014
lhumerus -14.0511 26.0403 41.568
lradius 37.0351
lwrist 38.535
lhand -35.519 -12.6989
lfingers 7.12502
lthumb -8.64566 17.1041
rfemur -39.1484 -14.9757 12.9838
rtibia 58.5816
rfoot 2.45654 -14.8725
rtoes -2.63735
lfemur 5.87092 -6.54296 -15.4612
ltibia 4.77083e-015
lfoot -13.8148 20.3254
ltoes 3.88112
371
root 4.49908 17.6028 0.476426 -259.158 -81.0669 262.8
lowerback -0.159759 -2.35431 -6.90256
upperback 1.52662 -3.09003 1.09404
thorax 2.09819 -1.66767 4.93044
lowerneck -13.1424 -10.3534 -16.9366
upperneck 29.4787 -13.6162 6.85291
head 13.9287 -7.2919 3.16708
rclavicle 1.98785e-014 2.38542e-014
rhumerus -19.1431 -11.8103 -43.8258
rradius 47.8359
rwrist -10.2587
rhand -2.42736 -22.1759
rfingers 7.12502
rthumb 23.2634 -50.7906
lclavicle 1.98785e-014 2.38542e-014
lhumerus -14.0443 27.004 41.527
lradius 36.1895
lwrist 37.051
lhand -35.5499 -12.707
lfingers 7.12502
lthumb -8.67543 17.0947
rfemur -38.4916 -14.4808 13.0926
rtibia 57.3557
rfoot 2.3828 -14.8986
rtoes -2.29038
lfemur 5.83549 -6.38678 -15.6941
ltibia 4.77083e-015
lfoot -13.8405 20.2286
ltoes 4.26947
372
root 4.49105 17.5921 0.450939 -258.105 -81.3041 261.841
lowerback -0.328279 -2.33661 -7.13145
upperback 1.52469 -3.05022 1.0523
thorax 2.19635 -1.6543 5.00977
lowerneck -13.2284 -10.358 -16.8621
upperneck 29.6999 -13.5677 6.58381
head 14.0065 -7.29821 3.05286
rclavicle -1.09332e-014 -2.70347e-014
rhumerus -19.1283 -11.9212 -43.8421
rradius 47.8045
rwrist -10.2311
rhand -2.57384 -21.9652
rfingers 7.12502
rthumb 23.1229 -50.5976
lclavicle -1.09332e-014 -2.70347e-014
lhumerus -13.8533 28.0877 41.6122
lradius 35.0926
lwrist 35.5089
lhand -35.9725 -12.7627
lfingers 7.12502
lthumb -9.08331 17.0217
rfemur -37.8577 -13.9135 13.2562
rtibia 56.1317
rfoot 2.50407 -14.9131
rtoes -2.99886
lfemur 5.77637 -6.23938 -15.8673
ltibia -2.54444e-014
lfoot -13.7722 20.1767
ltoes 4.4612
373
root 4.48126 17.5833 0.426508 -257.216 -81.3641 261.096
lowerback -0.720014 -2.33431 -7.15561
upperback 1.61358 -3.01452 1.06569
thorax 2.50671 -1.65063 5.0196
lowerneck -13.0769 -10.3011 -16.8908
upperneck 29.5997 -13.4819 6.55144
head 13.9178 -7.27053 3.06947
rclavicle 3.18055e-014 -2.06736e-014
rhumerus -19.1993 -11.7734 -43.7585
rradius 48.0737
rwrist -10.5503
rhand -2.5443 -21.9297
rfingers 7.12502
rthumb 23.1513 -50.5586
lclavicle 3.18055e-014 -2.06736e-014
lhumerus -13.5292 29.3156 41.7374
lradius 33.9916
lwrist 33.9355
lhand -36.2215 -12.8726
lfingers 7.12502
lthumb -9.32352 16.9012
rfemur -37.2824 -13.3783 13.6435
rtibia 54.9268
rfoot 2.65084 -14.7582
rtoes -4.29991
lfemur 5.66441 -6.08977 -15.8421
ltibia 1.59028e-014
lfoot -13.6845 20.16
ltoes 4.19444
374
root 4.47143 17.5708 0.404909 -256.58 -81.3786 260.609
lowerback -1.2962 -2.3667 -7.04124
upperback 1.85318 -3.00977 1.03001
thorax 3.07222 -1.67252 4.88765
lowerneck -13.1181 -10.2583 -16.828
upperneck 29.3542 -13.4331 6.69535
head 13.8186 -7.21433 3.12676
rclavicle 2.18663e-015 1.90833e-014
rhumerus -18.9252 -12.0788 -43.962
rradius 48.1881
rwrist -10.5469
rhand -2.50602 -22.4152
rfingers 7.12502
rthumb 23.188 -51.0394
lclavicle 2.18663e-015 1.90833e-014
lhumerus -13.1972 30.5233 41.6776
lradius 33.0458
lwrist 32.523
lhand -35.8681 -13.1206
lfingers 7.12502
lthumb -8.9825 16.6682
rfemur -36.6978 -12.9152 14.0632
rtibia 53.785
rfoot 2.79346 -14.3529
rtoes -5.36152
lfemur 4.47248 -5.95388 -15.7717
ltibia 2.1903
lfoot -14.806 19.7676
ltoes 4.20791
